# xmcd
#
# Track frame offsets:
#	750
#	28590
#	67756
#	70175
#	72641
#	93902
#	154688
#	178572
#	184090
#	231680
#	257876
#	282587
#	347770
#
# Disc length: 4644
#
# Revision: 1
# Processed by: cddbd v1.5.1PL0 Copyright (c) Steve Scherf et al.
# Submitted via: CDex 1.51
# Normalized: r0:TRMNUM
#
DISCID=c1121a0d
DTITLE=Martin Weller - Die schönsten Geschichten aus unserer Geeschend
DYEAR=2003
DGENRE=Country
TTITLE0=Erbeskopf - Berg des Schicksals
TTITLE1=De Taiger
TTITLE2=Die Katz
TTITLE3=De Marder
TTITLE4=Wirtschaftspolitik
TTITLE5=Excelsior
TTITLE6=En da Foußgängerzoon
TTITLE7=Käh Geld
TTITLE8=NCO - Club
TTITLE9=Felsenkirchsage
TTITLE10=Karl onn Benno
TTITLE11=Spießbratenfest
TTITLE12=Bonus
EXTD=YEAR: 2003
EXTT0=
EXTT1=
EXTT2=
EXTT3=
EXTT4=
EXTT5=
EXTT6=
EXTT7=
EXTT8=
EXTT9=
EXTT10=
EXTT11=
EXTT12=
PLAYORDER=
